<svg xmlns="http://www.w3.org/2000/svg" viewBox="0 0 960 540" fill="none">
  <rect width="960" height="540" fill="#0b0f1a"/>
  <rect x="0" y="0" width="960" height="64" fill="#0f172a" opacity="0.9"/>
  <circle cx="48" cy="32" r="18" fill="url(#g1)"/>
  <text x="48" y="37" text-anchor="middle" fill="white" font-family="Segoe UI,sans-serif" font-size="11" font-weight="700">GP</text>
  <text x="80" y="38" fill="#e2e8f0" font-family="Segoe UI,sans-serif" font-size="14" font-weight="600">Guardiăo de Pagamentos</text>
  <text x="860" y="38" fill="#34d399" font-family="Segoe UI,sans-serif" font-size="12">Documentaçăo ’</text>
  <text x="480" y="120" text-anchor="middle" fill="#6ee7b7" font-family="Segoe UI,sans-serif" font-size="11">MBA Digital College · Cięncia de Dados &amp; GenAI</text>
  <text x="480" y="165" text-anchor="middle" fill="white" font-family="Segoe UI,sans-serif" font-size="28" font-weight="700">Governança financeira com</text>
  <text x="480" y="200" text-anchor="middle" fill="url(#g1)" font-family="Segoe UI,sans-serif" font-size="28" font-weight="700">inteligęncia artificial</text>
  <rect x="180" y="240" width="140" height="56" rx="12" fill="#121829" stroke="#334155"/>
  <rect x="340" y="240" width="140" height="56" rx="12" fill="#121829" stroke="#334155"/>
  <rect x="500" y="240" width="140" height="56" rx="12" fill="#121829" stroke="#334155"/>
  <rect x="660" y="240" width="140" height="56" rx="12" fill="#121829" stroke="#334155"/>
  <text x="480" y="330" text-anchor="middle" fill="#64748b" font-family="Segoe UI,sans-serif" font-size="12">Selecione seu perfil</text>
  <rect x="80" y="360" width="250" height="140" rx="16" fill="#121829" stroke="#06b6d4" opacity="0.5"/>
  <rect x="355" y="360" width="250" height="140" rx="16" fill="#121829" stroke="#8b5cf6" opacity="0.5"/>
  <rect x="630" y="360" width="250" height="140" rx="16" fill="#121829" stroke="#10b981" opacity="0.5"/>
  <text x="205" y="400" text-anchor="middle" fill="white" font-family="Segoe UI,sans-serif" font-size="14" font-weight="600">Analista</text>
  <text x="480" y="400" text-anchor="middle" fill="white" font-family="Segoe UI,sans-serif" font-size="14" font-weight="600">Gerente</text>
  <text x="755" y="400" text-anchor="middle" fill="white" font-family="Segoe UI,sans-serif" font-size="14" font-weight="600">Diretoria</text>
  <defs>
    <linearGradient id="g1" x1="0" y1="0" x2="1" y2="1">
      <stop stop-color="#10b981"/><stop offset="1" stop-color="#14b8a6"/>
    </linearGradient>
  </defs>
</svg>
