<?xml version="1.0" encoding="UTF-8"?>
<svg xmlns="http://www.w3.org/2000/svg" viewBox="0 0 1200 675" fill="none">
  <rect width="1200" height="675" fill="#0b0f1a"/>
  <rect x="0" y="0" width="1200" height="64" fill="#020617"/>
  <text x="40" y="40" fill="#34d399" font-family="Segoe UI,Arial,sans-serif" font-size="14" font-weight="600">ANALISTA</text>
  <text x="40" y="100" fill="#f1f5f9" font-family="Segoe UI,Arial,sans-serif" font-size="22" font-weight="700">Remessas e pagamentos</text>
  <text x="40" y="130" fill="#cbd5e1" font-family="Segoe UI,Arial,sans-serif" font-size="13">O que deseja fazer?</text>
  <rect x="40" y="150" width="260" height="90" rx="12" fill="#064e3b" stroke="#10b981" stroke-width="2"/>
  <rect x="320" y="150" width="260" height="90" rx="12" fill="#0f172a" stroke="#475569"/>
  <rect x="600" y="150" width="260" height="90" rx="12" fill="#0f172a" stroke="#475569"/>
  <rect x="880" y="150" width="260" height="90" rx="12" fill="#0f172a" stroke="#475569"/>
  <text x="170" y="190" text-anchor="middle" fill="#fff" font-size="13" font-weight="600">Remessas</text>
  <text x="450" y="190" text-anchor="middle" fill="#e2e8f0" font-size="13" font-weight="600">Novos cadastros</text>
  <text x="730" y="190" text-anchor="middle" fill="#e2e8f0" font-size="13" font-weight="600">Consultar cadastros</text>
  <text x="1010" y="190" text-anchor="middle" fill="#e2e8f0" font-size="13" font-weight="600">Contas e extrato</text>
  <rect x="40" y="270" width="1120" height="360" rx="16" fill="#0f172a" stroke="#475569"/>
  <text x="60" y="310" fill="#fff" font-size="16" font-weight="600">Remessa de pagamentos</text>
  <rect x="60" y="330" width="180" height="36" rx="8" fill="#059669"/>
  <text x="150" y="353" text-anchor="middle" fill="#fff" font-size="12">Nova remessa</text>
  <rect x="60" y="390" width="1060" height="48" rx="8" fill="#1e293b" stroke="#64748b"/>
  <text x="80" y="420" fill="#e2e8f0" font-size="13">Remessa #26 &#183; Conta operacional &#183; 3 pagamentos</text>
  <rect x="60" y="460" width="1060" height="140" rx="8" fill="#1e293b" stroke="#64748b"/>
  <text x="80" y="495" fill="#cbd5e1" font-size="12">Pagamento PJ &#183; R$ 45.200,00</text>
  <text x="80" y="525" fill="#cbd5e1" font-size="12">Pagamento PF sal&#225;rio &#183; R$ 8.500,00</text>
  <rect x="60" y="620" width="1060" height="40" rx="8" fill="#7c3aed"/>
  <text x="590" y="645" text-anchor="middle" fill="#fff" font-size="13" font-weight="600">Enviar remessa ao gerente (an&#225;lise IA)</text>
</svg>