<?xml version="1.0" encoding="UTF-8"?>
<svg xmlns="http://www.w3.org/2000/svg" viewBox="0 0 1200 675" fill="none">
  <rect width="1200" height="675" fill="#0b0f1a"/>
  <text x="40" y="40" fill="#a78bfa" font-family="Segoe UI,Arial,sans-serif" font-size="14" font-weight="600">GERENTE</text>
  <text x="40" y="100" fill="#fff" font-size="22" font-weight="700">Aprova&#231;&#245;es e revis&#227;o IA</text>
  <rect x="40" y="130" width="270" height="80" rx="12" fill="#064e3b" stroke="#10b981" stroke-width="2"/>
  <rect x="330" y="130" width="270" height="80" rx="12" fill="#0f172a" stroke="#475569"/>
  <rect x="620" y="130" width="270" height="80" rx="12" fill="#0f172a" stroke="#475569"/>
  <rect x="910" y="130" width="250" height="80" rx="12" fill="#0f172a" stroke="#475569"/>
  <text x="175" y="175" text-anchor="middle" fill="#fff" font-size="12" font-weight="600">Remessas</text>
  <text x="465" y="175" text-anchor="middle" fill="#e2e8f0" font-size="12" font-weight="600">Fornecedores</text>
  <rect x="40" y="240" width="1120" height="380" rx="16" fill="#0f172a" stroke="#7c3aed"/>
  <text x="60" y="280" fill="#fff" font-size="16" font-weight="600">Remessa #12 &#183; aguardando 2&#170; assinatura</text>
  <text x="60" y="310" fill="#f87171" font-size="12">Modelo ML detectou fraude &#8212; justificativa obrigat&#243;ria</text>
  <rect x="60" y="330" width="1080" height="100" rx="8" fill="#1e293b"/>
  <text x="80" y="365" fill="#e2e8f0" font-size="12">PAY-000042 &#183; Fornecedor XYZ &#183; R$ 28.400,00 &#183; Score alto</text>
  <text x="80" y="395" fill="#94a3b8" font-size="11">Parecer GenAI: diverg&#234;ncia documental identificada...</text>
  <rect x="60" y="450" width="140" height="36" rx="8" fill="#059669"/>
  <text x="130" y="473" text-anchor="middle" fill="#fff" font-size="11">Liberar</text>
  <rect x="220" y="450" width="140" height="36" rx="8" fill="#dc2626"/>
  <text x="290" y="473" text-anchor="middle" fill="#fff" font-size="11">Devolver</text>
</svg>