<svg xmlns="http://www.w3.org/2000/svg" viewBox="0 0 960 540" fill="none">
  <rect width="960" height="540" fill="#0b0f1a"/>
  <rect x="0" y="0" width="960" height="56" fill="#020617" stroke="#1e293b"/>
  <text x="24" y="36" fill="#a78bfa" font-family="Segoe UI,sans-serif" font-size="12" font-weight="600">GERENTE</text>
  <rect x="24" y="80" width="912" height="420" rx="16" fill="#121829" stroke="#7c3aed" opacity="0.4"/>
  <text x="44" y="115" fill="white" font-family="Segoe UI,sans-serif" font-size="16" font-weight="600">Aprovaçőes e revisăo IA</text>
  <rect x="44" y="140" width="120" height="24" rx="12" fill="#7f1d1d"/>
  <text x="104" y="156" text-anchor="middle" fill="#fca5a5" font-family="Segoe UI,sans-serif" font-size="10">ML Fraude 78%</text>
  <rect x="180" y="140" width="100" height="24" rx="12" fill="#422006"/>
  <text x="230" y="156" text-anchor="middle" fill="#fcd34d" font-family="Segoe UI,sans-serif" font-size="10">Risco alto</text>
  <rect x="44" y="180" width="420" height="120" rx="8" fill="#0f172a" stroke="#475569"/>
  <text x="60" y="210" fill="#c4b5fd" font-family="Segoe UI,sans-serif" font-size="11" font-weight="600">Parecer GenAI</text>
  <text x="60" y="235" fill="#94a3b8" font-family="Segoe UI,sans-serif" font-size="10">ALERTA: padrăo atípico de valor...</text>
  <rect x="480" y="180" width="420" height="120" rx="8" fill="#0f172a" stroke="#475569"/>
  <text x="496" y="210" fill="#6ee7b7" font-family="Segoe UI,sans-serif" font-size="11" font-weight="600">Histórico PAY-000042 v1’v2</text>
  <rect x="44" y="320" width="280" height="36" rx="8" fill="#1e293b" stroke="#64748b"/>
  <text x="184" y="343" text-anchor="middle" fill="#e2e8f0" font-family="Segoe UI,sans-serif" font-size="11">Devolver ao analista</text>
  <rect x="340" y="320" width="200" height="36" rx="8" fill="url(#g3)"/>
  <text x="440" y="343" text-anchor="middle" fill="white" font-family="Segoe UI,sans-serif" font-size="11" font-weight="600">Liberar remessa</text>
  <defs>
    <linearGradient id="g3" x1="0" y1="0" x2="1" y2="0">
      <stop stop-color="#059669"/><stop offset="1" stop-color="#0d9488"/>
    </linearGradient>
  </defs>
</svg>
