<?xml version="1.0" encoding="UTF-8"?>
<svg xmlns="http://www.w3.org/2000/svg" viewBox="0 0 1200 675" fill="none">
  <rect width="1200" height="675" fill="#0b0f1a"/>
  <text x="40" y="40" fill="#34d399" font-size="14" font-weight="600">DIRETORIA</text>
  <text x="40" y="95" fill="#fff" font-size="22" font-weight="700">Vis&#227;o executiva</text>
  <rect x="40" y="115" width="200" height="70" rx="10" fill="#064e3b" stroke="#10b981" stroke-width="2"/>
  <rect x="260" y="115" width="200" height="70" rx="10" fill="#0f172a" stroke="#475569"/>
  <rect x="480" y="115" width="200" height="70" rx="10" fill="#0f172a" stroke="#475569"/>
  <text x="140" y="155" text-anchor="middle" fill="#fff" font-size="11" font-weight="600">Dashboard</text>
  <rect x="40" y="210" width="170" height="72" rx="10" fill="#1e293b" stroke="#475569"/>
  <rect x="230" y="210" width="170" height="72" rx="10" fill="#1e293b" stroke="#475569"/>
  <rect x="420" y="210" width="170" height="72" rx="10" fill="#1e293b" stroke="#475569"/>
  <rect x="610" y="210" width="170" height="72" rx="10" fill="#7f1d1d" stroke="#ef4444"/>
  <text x="125" y="245" text-anchor="middle" fill="#94a3b8" font-size="10">SALDO TOTAL</text>
  <text x="125" y="268" text-anchor="middle" fill="#fff" font-size="14" font-weight="700">R$ 1.535.000</text>
  <text x="695" y="245" text-anchor="middle" fill="#fca5a5" font-size="10">FRAUDES IA</text>
  <text x="695" y="268" text-anchor="middle" fill="#fecaca" font-size="14" font-weight="700">28</text>
  <rect x="40" y="300" width="560" height="320" rx="12" fill="#0f172a" stroke="#06b6d4"/>
  <rect x="620" y="300" width="540" height="320" rx="12" fill="#0f172a" stroke="#a78bfa"/>
  <text x="60" y="335" fill="#e2e8f0" font-size="13" font-weight="600">Execu&#231;&#245;es IA por perfil</text>
  <text x="640" y="335" fill="#e2e8f0" font-size="13" font-weight="600">Evolu&#231;&#227;o mensal</text>
  <rect x="80" y="380" width="320" height="24" rx="4" fill="#22d3ee"/>
  <text x="420" y="397" fill="#cbd5e1" font-size="12">Analista: 74 execu&#231;&#245;es</text>
</svg>