<svg xmlns="http://www.w3.org/2000/svg" viewBox="0 0 960 320" fill="none">
  <rect width="960" height="320" fill="#0b0f1a"/>
  <rect x="40" y="120" width="140" height="80" rx="12" fill="#121829" stroke="#06b6d4"/>
  <text x="110" y="155" text-anchor="middle" fill="white" font-family="Segoe UI,sans-serif" font-size="12" font-weight="600">Analista</text>
  <text x="110" y="175" text-anchor="middle" fill="#64748b" font-family="Segoe UI,sans-serif" font-size="10">Envia remessa</text>
  <path d="M180 160 H220" stroke="#475569" stroke-width="2" marker-end="url(#arrow)"/>
  <rect x="220" y="120" width="140" height="80" rx="12" fill="#312e81" stroke="#8b5cf6"/>
  <text x="290" y="155" text-anchor="middle" fill="white" font-family="Segoe UI,sans-serif" font-size="12" font-weight="600">IA Lote</text>
  <text x="290" y="175" text-anchor="middle" fill="#c4b5fd" font-family="Segoe UI,sans-serif" font-size="10">ML + GenAI</text>
  <path d="M360 160 H400" stroke="#475569" stroke-width="2"/>
  <rect x="400" y="100" width="120" height="50" rx="8" fill="#0f172a" stroke="#10b981"/>
  <text x="460" y="130" text-anchor="middle" fill="#6ee7b7" font-family="Segoe UI,sans-serif" font-size="10">Heurísticas</text>
  <rect x="400" y="170" width="120" height="50" rx="8" fill="#0f172a" stroke="#10b981"/>
  <text x="460" y="200" text-anchor="middle" fill="#6ee7b7" font-family="Segoe UI,sans-serif" font-size="10">XGBoost</text>
  <path d="M520 160 H560" stroke="#475569" stroke-width="2"/>
  <rect x="560" y="120" width="140" height="80" rx="12" fill="#121829" stroke="#a78bfa"/>
  <text x="630" y="155" text-anchor="middle" fill="white" font-family="Segoe UI,sans-serif" font-size="12" font-weight="600">Gerente</text>
  <text x="630" y="175" text-anchor="middle" fill="#64748b" font-family="Segoe UI,sans-serif" font-size="10">Revisa e libera</text>
  <path d="M700 160 H740" stroke="#475569" stroke-width="2"/>
  <rect x="740" y="120" width="140" height="80" rx="12" fill="#121829" stroke="#34d399"/>
  <text x="810" y="155" text-anchor="middle" fill="white" font-family="Segoe UI,sans-serif" font-size="12" font-weight="600">Diretoria</text>
  <text x="810" y="175" text-anchor="middle" fill="#64748b" font-family="Segoe UI,sans-serif" font-size="10">KPIs + WORM</text>
  <text x="480" y="50" text-anchor="middle" fill="#94a3b8" font-family="Segoe UI,sans-serif" font-size="14">Fluxo de análise IA no envio da remessa</text>
  <defs>
    <marker id="arrow" markerWidth="8" markerHeight="8" refX="6" refY="4" orient="auto">
      <path d="M0,0 L8,4 L0,8 Z" fill="#475569"/>
    </marker>
  </defs>
</svg>
